Genre:Drama | Music | Romance
Language:English
IMDb:http://www.imdb.com/title/tt1193631/
Source: RUS.Thanks
Source audio:Boobies.Thanks
..........................................
General
Complete name : Step Up 3D 2010 TS XVID FEEL-FREE
Format : AVI
Format/Info : Audio Video Interleave
File size : 947 MiB
Duration : 1h 38mn
Overall bit rate : 1 341 Kbps
..........................................
Video
Format : xvid
Codec ID : xvid
Duration : 1h 38mn
Bit rate : 1 200 Kbps
Width : 688 pixels
Height : 288 pixels
Display aspect ratio : 2.35:1
Frame rate : 29.970 fps
Resolution : 24 bits
Bits/(Pixel*Frame) : 0.202
Stream size : 847 MiB (89%)
..........................................
Audio
ID : 1
Format : MPEG Audio
Format version : Version 1
Format profile : Layer 3
Format settings, Mode : Joint stereo / MS Stereo
Codec ID : 55
Codec ID/Hint : MP3
Duration : 1h 38mn
Bit rate mode : Constant
Bit rate : 128 Kbps
Channel(s) : 2 channels
Sampling rate : 44.1 KHz
Resolution : 16 bits
Stream size : 90.4 MiB (10%)
Alignment : Aligned on interleaves
Interleave, duration : 26 ms (0.78 video frame)
Interleave, preload duration : 26 ms
.........................................
Plot:
A tight-knit group of New York City street dancers, including Luke (Malambri) and Natalie (Vinson), team up with NYU freshman Moose (Sevani)
..........................................

Screenshots:
 
http://postimg.com/image/20000/19879.jpg
 
http://postimg.com/image/20000/19880.jpg


...........................................